<?xml version="1.0" standalone="no"?>
<!DOCTYPE svg PUBLIC "-//W3C//DTD SVG 1.1//EN"
"http://www.w3.org/Graphics/SVG/1.1/DTD/svg11.dtd">

<svg width="350" height="398" view_box="0 0 350 398"
xmlns="http://www.w3.org/2000/svg"
xmlns:link="http://www.w3.org/1999/xlink">\n\n<desc>Généré par Mocodo 2.3.7 le Wed, 04 May 2022 04:28:58</desc>

<rect id="frame" x="0" y="0" width="350" height="398" fill="#f7f7f7" stroke="none" stroke-width="0"/>

<!-- Association Reviews -->
<line x1="284" y1="51" x2="284" y2="195" stroke="#5aae61" stroke-width="2"/>
<text x="289.0" y="110" fill="#762a83" font-family="Verdana" font-size="12">0,N</text>
<line x1="168" y1="195" x2="284" y2="195" stroke="#5aae61" stroke-width="2"/>
<text x="216" y="212.0" fill="#762a83" font-family="Verdana" font-size="12">0,N</text>
<g id="association-Reviews">
	<path d="M 311 153 a 14 14 90 0 1 14 14 V 178 h -82 V 167 a 14 14 90 0 1 14 -14" fill="#a6dba0" stroke="#a6dba0" stroke-width="0"/>
	<path d="M 325 178.0 v 45 a 14 14 90 0 1 -14 14 H 257 a 14 14 90 0 1 -14 -14 V 178.0 H 82" fill="#d9f0d3" stroke="#d9f0d3" stroke-width="0"/>
	<rect x="243" y="153" width="82" height="84" fill="none" rx="14" stroke="#5aae61" stroke-width="2"/>
	<line x1="243" y1="178" x2="325" y2="178" stroke="#5aae61" stroke-width="1"/>
	<text x="259" y="170.7" fill="#000000" font-family="Verdana" font-size="12">Reviews</text>
	<text x="250" y="195.8" fill="#000000" font-family="Verdana" font-size="12">content</text>
	<text x="250" y="212.8" fill="#000000" font-family="Verdana" font-size="12">rating</text>
	<text x="250" y="229.8" fill="#000000" font-family="Verdana" font-size="12">watched at</text>
</g>

<!-- Association Has -->
<line x1="284" y1="347" x2="168" y2="347" stroke="#5aae61" stroke-width="2"/>
<text x="201" y="364.0" fill="#762a83" font-family="Verdana" font-size="12">1,1</text>
<line x1="168" y1="195" x2="168" y2="347" stroke="#5aae61" stroke-width="2"/>
<text x="173.0" y="297" fill="#762a83" font-family="Verdana" font-size="12">0,N</text>
<g id="association-Has">
	<path d="M 173 322 a 14 14 90 0 1 14 14 V 347 h -38 V 336 a 14 14 90 0 1 14 -14" fill="#a6dba0" stroke="#a6dba0" stroke-width="0"/>
	<path d="M 187 347.0 v 11 a 14 14 90 0 1 -14 14 H 163 a 14 14 90 0 1 -14 -14 V 347.0 H 38" fill="#d9f0d3" stroke="#d9f0d3" stroke-width="0"/>
	<rect x="149" y="322" width="38" height="50" fill="none" rx="14" stroke="#5aae61" stroke-width="2"/>
	<line x1="149" y1="347" x2="187" y2="347" stroke="#5aae61" stroke-width="1"/>
	<text x="156" y="339.7" fill="#000000" font-family="Verdana" font-size="12">Has</text>
</g>

<!-- Association Plays -->
<line x1="51" y1="51" x2="168" y2="51" stroke="#5aae61" stroke-width="2"/>
<text x="98" y="68.0" fill="#762a83" font-family="Verdana" font-size="12">0,N</text>
<line x1="168" y1="195" x2="168" y2="51" stroke="#5aae61" stroke-width="2"/>
<text x="173.0" y="102" fill="#762a83" font-family="Verdana" font-size="12">0,N</text>
<g id="association-Plays">
	<path d="M 197 17 a 14 14 90 0 1 14 14 V 42 h -86 V 31 a 14 14 90 0 1 14 -14" fill="#a6dba0" stroke="#a6dba0" stroke-width="0"/>
	<path d="M 211 42.0 v 29 a 14 14 90 0 1 -14 14 H 139 a 14 14 90 0 1 -14 -14 V 42.0 H 86" fill="#d9f0d3" stroke="#d9f0d3" stroke-width="0"/>
	<rect x="125" y="17" width="86" height="68" fill="none" rx="14" stroke="#5aae61" stroke-width="2"/>
	<line x1="125" y1="42" x2="211" y2="42" stroke="#5aae61" stroke-width="1"/>
	<text x="152" y="34.7" fill="#000000" font-family="Verdana" font-size="12">Plays</text>
	<text x="132" y="59.8" fill="#000000" font-family="Verdana" font-size="12">role</text>
	<text x="132" y="76.8" fill="#000000" font-family="Verdana" font-size="12">credit order</text>
</g>

<!-- Association Belongs to -->
<line x1="168" y1="195" x2="51" y2="195" stroke="#5aae61" stroke-width="2"/>
<text x="98" y="212.0" fill="#762a83" font-family="Verdana" font-size="12">0,N</text>
<line x1="51" y1="347" x2="51" y2="195" stroke="#5aae61" stroke-width="2"/>
<text x="56.0" y="305" fill="#762a83" font-family="Verdana" font-size="12">0,N</text>
<g id="association-Belongs to">
	<path d="M 77 170 a 14 14 90 0 1 14 14 V 195 h -80 V 184 a 14 14 90 0 1 14 -14" fill="#a6dba0" stroke="#a6dba0" stroke-width="0"/>
	<path d="M 91 195.0 v 11 a 14 14 90 0 1 -14 14 H 25 a 14 14 90 0 1 -14 -14 V 195.0 H 80" fill="#d9f0d3" stroke="#d9f0d3" stroke-width="0"/>
	<rect x="11" y="170" width="80" height="50" fill="none" rx="14" stroke="#5aae61" stroke-width="2"/>
	<line x1="11" y1="195" x2="91" y2="195" stroke="#5aae61" stroke-width="1"/>
	<text x="18" y="187.7" fill="#000000" font-family="Verdana" font-size="12">Belongs to</text>
</g>

<!-- Entity GENRE -->
<g id="entity-GENRE">
	<g id="frame-GENRE">
		<rect x="12" y="313" width="78" height="25" fill="#c2a5cf" stroke="#c2a5cf" stroke-width="0"/>
		<rect x="12" y="338.0" width="78" height="43" fill="#e7d4e8" stroke="#e7d4e8" stroke-width="0"/>
		<rect x="12" y="313" width="78" height="68" fill="none" stroke="#9970ab" stroke-width="2"/>
		<line x1="12" y1="338" x2="90" y2="338" stroke="#9970ab" stroke-width="1"/>
	</g>
	<text x="29" y="330.7" fill="#000000" font-family="Verdana" font-size="12">GENRE</text>
	<text x="17" y="355.8" fill="#000000" font-family="Verdana" font-size="12">genre code</text>
	<line x1="17" y1="358" x2="85" y2="358" stroke="#000000" stroke-width="1"/>
	<text x="17" y="372.8" fill="#000000" font-family="Verdana" font-size="12">name</text>
</g>

<!-- Entity PERSON -->
<g id="entity-PERSON">
	<g id="frame-PERSON">
		<rect x="9" y="9" width="84" height="25" fill="#c2a5cf" stroke="#c2a5cf" stroke-width="0"/>
		<rect x="9" y="34.0" width="84" height="59" fill="#e7d4e8" stroke="#e7d4e8" stroke-width="0"/>
		<rect x="9" y="9" width="84" height="84" fill="none" stroke="#9970ab" stroke-width="2"/>
		<line x1="9" y1="34" x2="93" y2="34" stroke="#9970ab" stroke-width="1"/>
	</g>
	<text x="25" y="26.7" fill="#000000" font-family="Verdana" font-size="12">PERSON</text>
	<text x="14" y="51.8" fill="#000000" font-family="Verdana" font-size="12">person code</text>
	<line x1="14" y1="54" x2="88" y2="54" stroke="#000000" stroke-width="1"/>
	<text x="14" y="68.8" fill="#000000" font-family="Verdana" font-size="12">firstname</text>
	<text x="14" y="85.8" fill="#000000" font-family="Verdana" font-size="12">lastname</text>
</g>

<!-- Entity SEASON -->
<g id="entity-SEASON">
	<g id="frame-SEASON">
		<rect x="227" y="305" width="114" height="25" fill="#c2a5cf" stroke="#c2a5cf" stroke-width="0"/>
		<rect x="227" y="330.0" width="114" height="59" fill="#e7d4e8" stroke="#e7d4e8" stroke-width="0"/>
		<rect x="227" y="305" width="114" height="84" fill="none" stroke="#9970ab" stroke-width="2"/>
		<line x1="227" y1="330" x2="341" y2="330" stroke="#9970ab" stroke-width="1"/>
	</g>
	<text x="258" y="322.7" fill="#000000" font-family="Verdana" font-size="12">SEASON</text>
	<text x="232" y="347.8" fill="#000000" font-family="Verdana" font-size="12">season code</text>
	<line x1="232" y1="350" x2="307" y2="350" stroke="#000000" stroke-width="1"/>
	<text x="232" y="364.8" fill="#000000" font-family="Verdana" font-size="12">number</text>
	<text x="232" y="381.8" fill="#000000" font-family="Verdana" font-size="12">episodes number</text>
</g>

<!-- Entity USER -->
<g id="entity-USER">
	<g id="frame-USER">
		<rect x="248" y="9" width="72" height="25" fill="#c2a5cf" stroke="#c2a5cf" stroke-width="0"/>
		<rect x="248" y="34.0" width="72" height="59" fill="#e7d4e8" stroke="#e7d4e8" stroke-width="0"/>
		<rect x="248" y="9" width="72" height="84" fill="none" stroke="#9970ab" stroke-width="2"/>
		<line x1="248" y1="34" x2="320" y2="34" stroke="#9970ab" stroke-width="1"/>
	</g>
	<text x="267" y="26.7" fill="#000000" font-family="Verdana" font-size="12">USER</text>
	<text x="253" y="51.8" fill="#000000" font-family="Verdana" font-size="12">email</text>
	<line x1="253" y1="54" x2="287" y2="54" stroke="#000000" stroke-width="1"/>
	<text x="253" y="68.8" fill="#000000" font-family="Verdana" font-size="12">username</text>
	<text x="253" y="85.8" fill="#000000" font-family="Verdana" font-size="12">role</text>
</g>

<!-- Entity MOVIE -->
<g id="entity-MOVIE">
	<g id="frame-MOVIE">
		<rect x="125" y="110" width="86" height="25" fill="#c2a5cf" stroke="#c2a5cf" stroke-width="0"/>
		<rect x="125" y="135.0" width="86" height="145" fill="#e7d4e8" stroke="#e7d4e8" stroke-width="0"/>
		<rect x="125" y="110" width="86" height="170" fill="none" stroke="#9970ab" stroke-width="2"/>
		<line x1="125" y1="135" x2="211" y2="135" stroke="#9970ab" stroke-width="1"/>
	</g>
	<text x="147" y="127.7" fill="#000000" font-family="Verdana" font-size="12">MOVIE</text>
	<text x="130" y="152.7" fill="#000000" font-family="Verdana" font-size="12">ISAN</text>
	<line x1="130" y1="155" x2="161" y2="155" stroke="#000000" stroke-width="1"/>
	<text x="130" y="169.7" fill="#000000" font-family="Verdana" font-size="12">title</text>
	<text x="130" y="186.7" fill="#000000" font-family="Verdana" font-size="12">release date</text>
	<text x="130" y="203.8" fill="#000000" font-family="Verdana" font-size="12">duration</text>
	<text x="130" y="220.8" fill="#000000" font-family="Verdana" font-size="12">summary</text>
	<text x="130" y="237.8" fill="#000000" font-family="Verdana" font-size="12">synopsis</text>
	<text x="130" y="254.8" fill="#000000" font-family="Verdana" font-size="12">poster</text>
	<text x="130" y="271.8" fill="#000000" font-family="Verdana" font-size="12">rating</text>
</g>
</svg>